# xmcd
#
# Track frame offsets: 
#        150
#        16075
#        35657
#        53612
#        70432
#        88445
#
# Disc length: 1404 seconds
#
# Revision: 0
# Processed by: cddbd v1.5.1PL0 Copyright (c) Steve Scherf et al.
# Submitted via: ExactAudioCopy v0.95a5
#
DISCID=4c057a06
DTITLE=Kim Del Fierro - Want Me?
DYEAR=1998
DGENRE=Freestyle
TTITLE0=Pretty Planet Edit
TTITLE1=Trip Edit
TTITLE2=Euro Edit
TTITLE3=Freestyle 808 Edit
TTITLE4=Phantom Edit
TTITLE5=Miami Freestyle Edit
EXTD=
EXTT0=
EXTT1=
EXTT2=
EXTT3=
EXTT4=
EXTT5=
PLAYORDER=
